<?xml version="1.0" encoding="UTF-8" standalone="no"?>
<svg
   xmlns:dc="http://purl.org/dc/elements/1.1/"
   xmlns:cc="http://creativecommons.org/ns#"
   xmlns:rdf="http://www.w3.org/1999/02/22-rdf-syntax-ns#"
   xmlns:svg="http://www.w3.org/2000/svg"
   xmlns="http://www.w3.org/2000/svg"
   id="svg1674"
   version="1.1"
   viewBox="0 0 37.89349 43.724297"
   height="43.724297mm"
   width="37.89349mm">
  <defs
     id="defs1668" />
  <metadata
     id="metadata1671">
    <rdf:RDF>
      <cc:Work
         rdf:about="">
        <dc:format>image/svg+xml</dc:format>
        <dc:type
           rdf:resource="http://purl.org/dc/dcmitype/StillImage" />
        <dc:title></dc:title>
      </cc:Work>
    </rdf:RDF>
  </metadata>
  <g
     transform="translate(-110.04461,-27.22616)"
     id="layer1">
    <g
       id="g2599"
       transform="matrix(0.35277777,0,0,-0.35277777,99.601182,137.86741)">
      <g
         id="g126"
         transform="translate(42.3892,244.626)">
        <path
           d="m 0,0 c 0.05,-22.762 18.585,-41.263 41.361,-41.263 22.77,0 41.302,18.496 41.358,41.252 -0.024,0.147 -0.039,0.278 -0.043,0.413 -0.002,0.044 -0.002,0.089 0,0.133 0.005,0.143 0.014,0.283 0.025,0.424 0.008,0.12 0.018,0.241 0.018,0.363 0,12.471 -10.143,22.618 -22.61,22.618 -6.63,0 -12.909,-2.91 -17.225,-7.982 -0.76,-0.894 -2.286,-0.894 -3.047,0 C 35.521,21.03 29.243,23.94 22.613,23.94 10.144,23.94 0,13.793 0,1.322 0,1.198 0.01,1.075 0.019,0.953 0.028,0.814 0.037,0.675 0.042,0.535 0.044,0.476 0.044,0.416 0.041,0.356 0.034,0.234 0.019,0.117 0,0 M 41.361,-45.263 C 16.349,-45.263 -4,-24.916 -4,0.094 c 0,0.153 0.014,0.301 0.036,0.447 L -3.972,0.678 C -3.987,0.892 -4,1.105 -4,1.322 -4,16 7.938,27.94 22.613,27.94 c 7.056,0 13.772,-2.797 18.748,-7.744 4.975,4.946 11.692,7.744 18.748,7.744 14.673,0 26.61,-11.94 26.61,-26.618 0,-0.217 -0.013,-0.43 -0.028,-0.644 l -0.009,-0.14 c 0.024,-0.154 0.037,-0.296 0.037,-0.444 0,-25.01 -20.347,-45.357 -45.358,-45.357"
           style="fill:#754c29;fill-opacity:1;fill-rule:nonzero;stroke:none"
           id="path128" />
      </g>
      <g
         id="g130"
         transform="translate(83.75,192.5205)">
        <path
           d="M 0,0 C -2.222,0 -4.462,0.143 -6.658,0.424 -7.479,0.529 -8.061,1.281 -7.955,2.103 -7.85,2.924 -7.104,3.499 -6.276,3.4 -4.207,3.135 -2.095,3 0,3 c 21.907,0 40.995,14.337 47.498,35.676 0.242,0.793 1.079,1.241 1.873,0.997 0.792,-0.241 1.238,-1.079 0.997,-1.872 C 43.477,15.191 23.236,0 0,0"
           style="fill:#ff9518;fill-opacity:1;fill-rule:nonzero;stroke:none"
           id="path132" />
      </g>
      <g
         id="g134"
         transform="translate(68.9497,194.7354)">
        <path
           d="m 0,0 c -0.146,0 -0.294,0.021 -0.441,0.066 -2.989,0.918 -5.916,2.12 -8.702,3.57 -0.734,0.382 -1.02,1.288 -0.638,2.022 0.383,0.735 1.287,1.02 2.024,0.638 C -5.133,4.93 -2.375,3.799 0.44,2.934 1.232,2.69 1.677,1.852 1.434,1.06 1.235,0.414 0.642,0 0,0"
           style="fill:#ff9518;fill-opacity:1;fill-rule:nonzero;stroke:none"
           id="path136" />
      </g>
      <g
         id="g138"
         transform="translate(33.9385,256.5527)">
        <path
           d="m 0,0 c -0.169,0 -0.341,0.029 -0.509,0.089 -0.78,0.282 -1.183,1.141 -0.902,1.921 4.408,12.212 15.945,20.418 28.709,20.418 0.828,0 1.5,-0.672 1.5,-1.5 0,-0.829 -0.672,-1.5 -1.5,-1.5 C 15.794,19.428 5.391,12.019 1.411,0.991 1.19,0.38 0.614,0 0,0"
           style="fill:#ff9518;fill-opacity:1;fill-rule:nonzero;stroke:none"
           id="path140" />
      </g>
      <g
         id="g142"
         transform="translate(83.75,206.7441)">
        <path
           d="M 0,0 C -0.829,0 -1.5,0.672 -1.5,1.5 -1.5,2.328 -0.829,3 0,3 19.178,3 34.784,18.204 34.824,36.908 34.807,37.013 34.795,37.1 34.79,37.188 l -0.005,0.076 0.003,0.077 c 0.004,0.11 0.012,0.221 0.02,0.331 0.007,0.103 0.016,0.207 0.016,0.312 0,5.599 -2.546,10.851 -6.984,14.41 -0.646,0.519 -0.75,1.462 -0.232,2.109 0.518,0.646 1.462,0.75 2.109,0.232 5.152,-4.132 8.107,-10.237 8.107,-16.751 0,-0.178 -0.011,-0.353 -0.024,-0.529 L 37.792,37.332 C 37.811,37.23 37.824,37.107 37.824,36.981 37.824,16.59 20.856,0 0,0"
           style="fill:#00a1d8;fill-opacity:1;fill-rule:nonzero;stroke:none"
           id="path144" />
      </g>
      <g
         id="g146"
         transform="translate(75.8481,302.8931)">
        <path
           d="m 0,0 c -7.7,7.701 -19.981,7.901 -19.981,7.901 0,0 0.2,-12.281 7.9,-19.983 7.701,-7.698 19.983,-7.9 19.983,-7.9 C 7.902,-19.982 7.7,-7.7 0,0"
           style="fill:#00a1d8;fill-opacity:1;fill-rule:nonzero;stroke:none"
           id="path148" />
      </g>
      <g
         id="g150"
         transform="translate(83.75,259.8794)">
        <path
           d="m 0,0 c -1.104,0 -2,0.896 -2,2 0,13.444 2.532,22.972 15.136,28.924 0.999,0.472 2.191,0.044 2.663,-0.955 0.472,-0.999 0.044,-2.191 -0.955,-2.662 C 4.047,22.208 2,14.479 2,2 2,0.896 1.104,0 0,0"
           style="fill:#754c29;fill-opacity:1;fill-rule:nonzero;stroke:none"
           id="path152" />
      </g>
    </g>
  </g>
</svg>
